<svg width="199" height="31" viewBox="0 0 199 31" fill="none" xmlns="http://www.w3.org/2000/svg">
<path opacity="0.9" d="M193.989 8.86401H198.197V29.9417H194.561V20.0973C194.561 18.014 194.643 15.8491 194.643 13.7658H194.602C193.295 16.0125 192.028 18.1366 190.762 20.0973L184.431 29.9417H180.55V20.0973C180.55 17.9323 180.591 15.9308 180.632 13.8067H180.591C179.284 16.0533 178.058 18.1366 176.792 20.0973L170.42 29.9417H166.498V8.86401H170.093V18.1774C170.093 20.0973 170.052 22.4665 170.011 24.5906H170.093C171.278 22.5073 172.666 20.179 173.974 18.1774L179.937 8.86401H184.063V18.1774C184.063 20.0973 184.022 22.4665 184.022 24.5906H184.063C185.289 22.5073 186.718 20.179 187.984 18.1774L193.989 8.86401Z" fill="#272727"/>
<path opacity="0.9" d="M158.122 5.55537C156.57 5.55537 155.345 4.32992 155.345 2.77768C155.345 1.22545 156.57 0 158.122 0C159.675 0 160.9 1.22545 160.9 2.77768C160.9 4.32992 159.675 5.55537 158.122 5.55537ZM159.961 29.9418H156.325V8.86408H159.961V29.9418Z" fill="#272727"/>
<path opacity="0.9" d="M145.472 8.86406H149.761V29.9418H146.166V20.1382C146.166 18.3 146.207 15.89 146.248 13.9292H146.207C145.227 15.5632 144.206 17.2788 143.184 18.7902L135.954 29.9418H132.033V0.531006H135.627V18.3409C135.627 20.179 135.627 22.344 135.546 24.3864H135.587C136.73 22.4665 137.874 20.7101 138.977 18.9944L145.472 8.86406Z" fill="#272727"/>
<path opacity="0.9" d="M121.308 8.86401H125.515V29.9417H121.88V20.0973C121.88 18.014 121.961 15.8491 121.961 13.7658H121.921C120.613 16.0125 119.347 18.1366 118.081 20.0973L111.749 29.9417H107.869V20.0973C107.869 17.9323 107.91 15.9308 107.95 13.8067H107.91C106.602 16.0533 105.377 18.1366 104.111 20.0973L97.7383 29.9417H93.8169V8.86401H97.4115V18.1774C97.4115 20.0973 97.3707 22.4665 97.3298 24.5906H97.4115C98.5961 22.5073 99.985 20.179 101.292 18.1774L107.256 8.86401H111.382V18.1774C111.382 20.0973 111.341 22.4665 111.341 24.5906H111.382C112.607 22.5073 114.037 20.179 115.303 18.1774L121.308 8.86401Z" fill="#272727"/>
<path opacity="0.9" d="M78.8633 30.187C73.0628 30.187 68.7329 25.3669 68.7329 19.4031C68.7329 13.4392 73.0628 8.61914 78.8633 8.61914H78.9041C84.6638 8.61914 88.9937 13.4392 88.9937 19.4031C88.9937 25.3669 84.6638 30.187 78.9041 30.187H78.8633ZM78.8633 26.6741H78.9041C82.703 26.6741 85.3582 23.3654 85.3582 19.4031C85.3582 15.5634 82.6622 12.1321 78.9041 12.1321H78.8633C75.0235 12.1729 72.3276 15.4408 72.3276 19.4031C72.3276 23.3654 75.0235 26.6741 78.8633 26.6741Z" fill="#272727"/>
<path opacity="0.9" d="M54.8091 30.187C49.0086 30.187 44.6787 25.3669 44.6787 19.4031C44.6787 13.4392 49.0086 8.61914 54.8091 8.61914H54.8499C60.6096 8.61914 64.9395 13.4392 64.9395 19.4031C64.9395 25.3669 60.6096 30.187 54.8499 30.187H54.8091ZM54.8091 26.6741H54.8499C58.6488 26.6741 61.304 23.3654 61.304 19.4031C61.304 15.5634 58.608 12.1321 54.8499 12.1321H54.8091C50.9693 12.1729 48.2734 15.4408 48.2734 19.4031C48.2734 23.3654 50.9693 26.6741 54.8091 26.6741Z" fill="#272727"/>
<path opacity="0.9" d="M44.3796 8.86401L34.8619 22.9975L34.9028 29.9417H31.3081V8.86401H34.8619V11.6825C34.8619 14.2151 34.8211 15.1955 34.6577 17.5647H34.6985C35.7197 15.6448 36.2099 14.8687 38.0481 12.0502L40.1722 8.86401H44.3796Z" fill="#272727"/>
<path opacity="0.9" d="M16.0534 12.8266L27.0416 29.942H14.8688C6.61742 29.942 0 23.9781 0 15.2775C0 6.49507 7.31184 0.286133 15.1547 0.286133C20.8326 0.286133 24.1822 2.45109 26.5105 4.00333V8.45579C23.978 6.29083 20.1791 3.92163 15.1547 3.92163C9.35426 3.92163 3.6355 8.45579 3.6355 15.2775C3.6355 22.0583 8.78239 26.4699 14.9913 26.4699H20.6692L11.9686 12.8266H16.0534Z" fill="#272727"/>
</svg>
